<svg xmlns="http://www.w3.org/2000/svg" version="1.1" xmlns:xlink="http://www.w3.org/1999/xlink" xmlns:svgjs="http://svgjs.dev/svgjs" width="1500" height="1500" viewBox="0 0 1500 1500"><rect width="1500" height="1500" fill="#cd1a2f"></rect><g transform="matrix(0.6666666666666666,0,0,0.6666666666666666,249.39174902600467,401.61617586081206)"><svg viewBox="0 0 354 247" data-background-color="#cd1a2f" preserveAspectRatio="xMidYMid meet" height="1046" width="1500" xmlns="http://www.w3.org/2000/svg" xmlns:xlink="http://www.w3.org/1999/xlink"><g id="tight-bounds" transform="matrix(1,0,0,1,0.21555114718171353,-0.09997365579206985)"><svg viewBox="0 0 353.5689828571428 247.2" height="247.2" width="353.5689828571428"><g><svg viewBox="0 0 353.5689828571428 247.2" height="247.2" width="353.5689828571428"><g><svg viewBox="0 0 353.5689828571428 247.2" height="247.2" width="353.5689828571428"><g id="textblocktransform"><svg viewBox="0 0 353.5689828571428 247.2" height="247.2" width="353.5689828571428" id="textblock"><g><svg viewBox="0 0 353.5689828571428 247.2" height="247.2" width="353.5689828571428"><path d="M352.741 53.02C351.079 27.36 346.342 20.227 346.342 20.227 331.797-6.202 313.646-0.506 297.34 3.292 268.551 3.446 239.878 9.091 211.155 12.119 150.867 12.581 90.063 4.986 30.074 23.717 24.439 29.464-5.846 24.846 1.002 56.304 2.797 69.39 9.347 83.913 9.147 95.922 10.045 98.026 11.291 93.202 11.823 96.23 13.685 104.39 16.727 100.541 19.22 105.365 15.746 118.246 18.239 128.971 20.616 140.21 16.428 143.135 11.059 141.749 8.648 151.449 8.399 158.479 7.053 157.145 5.573 156.837 4.493 156.632 2.315 157.402 2.681 159.608 3.928 167.152-1.425 171.514 1.933 178.904-0.377 186.91 3.529 193.838 2.997 202.511 2.93 204.255 3.296 205.744 3.878 206.154 6.454 208.361 2.698 212.672 3.097 217.342 29.526 249.262 58.199 227.195 85.276 241.872 92.307 231.608 87.021 245.516 89.83 243.36 92.025 240.846 93.62 251.263 96.097 245.362 96.479 243.668 95.898 239.665 97.261 240.435 97.975 240.846 98.607 240.743 98.707 238.382 98.856 234.841 97.543 237.048 97.194 235.201 100.967 225.861 100.036 248.081 103.577 247.158 103.411 244.438 102.38 240.538 104.491 241.051 106.585 237.151 106.652 233.918 108.514 242.693 108.58 244.592 108.913 245.926 109.444 246.85 115.262 237.305 121.047 250.237 127.147 245.926 130.887 241.205 134.477 248.492 138.267 246.696 139.597 245.259 140.943 242.693 142.223 247.004 157.898 247.928 174.603 244.079 189.463 247.158 229.173 241.41 271.609 249.518 313.48 241.923 323.353 238.998 333.609 234.841 343.233 231.506 343.233 231.506 351.029 222.371 351.029 181.316S352.691 145.393 352.941 112.703C353.19 80.013 354.354 78.679 352.691 53.02Z" opacity="1" fill="#ffffff" data-fill-palette-color="tertiary"></path><g transform="matrix(1,0,0,1,55.76831999999999,26.230666666666668)"><svg width="242.03234285714285" viewBox="1.25 -35 43.5 35" height="194.73866666666666" data-palette-color="#cd1a2f"><path d="M7.65 0L1.25 0 7.4-35 15-35 22.25-12.8 37.15-35 44.75-35 38.6 0 32.2 0 36.45-24.15 23.35-5 18.3-5 11.9-24.15 7.65 0Z" opacity="1" transform="matrix(1,0,0,1,0,0)" fill="#cd1a2f" class="wordmark-text-0" data-fill-palette-color="quaternary" id="text-0"></path></svg></g></svg></g></svg></g></svg></g><g></g></svg></g><defs></defs></svg><rect width="353.5689828571428" height="247.2" fill="none" stroke="none" visibility="hidden"></rect></g></svg></g></svg>